<svg width="1440" height="12" viewBox="0 0 1440 12" fill="none" xmlns="http://www.w3.org/2000/svg">
<circle cx="5" cy="6" r="0.5" fill="#FFF8E0"/>
<circle cx="16" cy="6" r="0.5" fill="#FFF8E0"/>
<circle cx="27" cy="6" r="0.5" fill="#FFF8E0"/>
<circle cx="38" cy="6" r="0.5" fill="#FFF8E0"/>
<circle cx="49" cy="6" r="0.5" fill="#FFF8E0"/>
<circle cx="60" cy="6" r="0.5" fill="#FFF8E0"/>
<circle cx="71" cy="6" r="0.5" fill="#FFF8E0"/>
<circle cx="82" cy="6" r="0.5" fill="#FFF8E0"/>
<circle cx="93" cy="6" r="0.5" fill="#FFF8E0"/>
<circle cx="104" cy="6" r="0.5" fill="#FFF8E0"/>
<circle cx="115" cy="6" r="0.5" fill="#FFF8E0"/>
<circle cx="126" cy="6" r="0.5" fill="#FFF8E0"/>
<circle cx="137" cy="6" r="0.5" fill="#FFF8E0"/>
<circle cx="148" cy="6" r="0.5" fill="#FFF8E0"/>
<circle cx="159" cy="6" r="0.5" fill="#FFF8E0"/>
<circle cx="170" cy="6" r="0.5" fill="#FFF8E0"/>
<circle cx="181" cy="6" r="0.5" fill="#FFF8E0"/>
<circle cx="192" cy="6" r="0.5" fill="#FFF8E0"/>
<circle cx="203" cy="6" r="0.5" fill="#FFF8E0"/>
<circle cx="214" cy="6" r="0.5" fill="#FFF8E0"/>
<circle cx="225" cy="6" r="0.5" fill="#FFF8E0"/>
<circle cx="236" cy="6" r="0.5" fill="#FFF8E0"/>
<circle cx="247" cy="6" r="0.5" fill="#FFF8E0"/>
<circle cx="258" cy="6" r="0.5" fill="#FFF8E0"/>
<circle cx="269" cy="6" r="0.5" fill="#FFF8E0"/>
<circle cx="280" cy="6" r="0.5" fill="#FFF8E0"/>
<circle cx="291" cy="6" r="0.5" fill="#FFF8E0"/>
<circle cx="302" cy="6" r="0.5" fill="#FFF8E0"/>
<circle cx="313" cy="6" r="0.5" fill="#FFF8E0"/>
<circle cx="324" cy="6" r="0.5" fill="#FFF8E0"/>
<circle cx="335" cy="6" r="0.5" fill="#FFF8E0"/>
<circle cx="346" cy="6" r="0.5" fill="#FFF8E0"/>
<circle cx="357" cy="6" r="0.5" fill="#FFF8E0"/>
<circle cx="368" cy="6" r="0.5" fill="#FFF8E0"/>
<circle cx="379" cy="6" r="0.5" fill="#FFF8E0"/>
<circle cx="390" cy="6" r="0.5" fill="#FFF8E0"/>
<circle cx="401" cy="6" r="0.5" fill="#FFF8E0"/>
<circle cx="412" cy="6" r="0.5" fill="#FFF8E0"/>
<circle cx="423" cy="6" r="0.5" fill="#FFF8E0"/>
<circle cx="434" cy="6" r="0.5" fill="#FFF8E0"/>
<circle cx="445" cy="6" r="0.5" fill="#FFF8E0"/>
<circle cx="456" cy="6" r="0.5" fill="#FFF8E0"/>
<circle cx="467" cy="6" r="0.5" fill="#FFF8E0"/>
<circle cx="478" cy="6" r="0.5" fill="#FFF8E0"/>
<circle cx="489" cy="6" r="0.5" fill="#FFF8E0"/>
<circle cx="500" cy="6" r="0.5" fill="#FFF8E0"/>
<circle cx="511" cy="6" r="0.5" fill="#FFF8E0"/>
<circle cx="522" cy="6" r="0.5" fill="#FFF8E0"/>
<circle cx="533" cy="6" r="0.5" fill="#FFF8E0"/>
<circle cx="544" cy="6" r="0.5" fill="#FFF8E0"/>
<circle cx="555" cy="6" r="0.5" fill="#FFF8E0"/>
<circle cx="566" cy="6" r="0.5" fill="#FFF8E0"/>
<circle cx="577" cy="6" r="0.5" fill="#FFF8E0"/>
<circle cx="588" cy="6" r="0.5" fill="#FFF8E0"/>
<circle cx="599" cy="6" r="0.5" fill="#FFF8E0"/>
<circle cx="610" cy="6" r="0.5" fill="#FFF8E0"/>
<circle cx="621" cy="6" r="0.5" fill="#FFF8E0"/>
<circle cx="632" cy="6" r="0.5" fill="#FFF8E0"/>
<circle cx="643" cy="6" r="0.5" fill="#FFF8E0"/>
<circle cx="654" cy="6" r="0.5" fill="#FFF8E0"/>
<circle cx="665" cy="6" r="0.5" fill="#FFF8E0"/>
<circle cx="676" cy="6" r="0.5" fill="#FFF8E0"/>
<circle cx="687" cy="6" r="0.5" fill="#FFF8E0"/>
<circle cx="698" cy="6" r="0.5" fill="#FFF8E0"/>
<circle cx="709" cy="6" r="0.5" fill="#FFF8E0"/>
<circle cx="720" cy="6" r="0.5" fill="#FFF8E0"/>
<circle cx="731" cy="6" r="0.5" fill="#FFF8E0"/>
<circle cx="742" cy="6" r="0.5" fill="#FFF8E0"/>
<circle cx="753" cy="6" r="0.5" fill="#FFF8E0"/>
<circle cx="764" cy="6" r="0.5" fill="#FFF8E0"/>
<circle cx="775" cy="6" r="0.5" fill="#FFF8E0"/>
<circle cx="786" cy="6" r="0.5" fill="#FFF8E0"/>
<circle cx="797" cy="6" r="0.5" fill="#FFF8E0"/>
<circle cx="808" cy="6" r="0.5" fill="#FFF8E0"/>
<circle cx="819" cy="6" r="0.5" fill="#FFF8E0"/>
<circle cx="830" cy="6" r="0.5" fill="#FFF8E0"/>
<circle cx="841" cy="6" r="0.5" fill="#FFF8E0"/>
<circle cx="852" cy="6" r="0.5" fill="#FFF8E0"/>
<circle cx="863" cy="6" r="0.5" fill="#FFF8E0"/>
<circle cx="874" cy="6" r="0.5" fill="#FFF8E0"/>
<circle cx="885" cy="6" r="0.5" fill="#FFF8E0"/>
<circle cx="896" cy="6" r="0.5" fill="#FFF8E0"/>
<circle cx="907" cy="6" r="0.5" fill="#FFF8E0"/>
<circle cx="918" cy="6" r="0.5" fill="#FFF8E0"/>
<circle cx="929" cy="6" r="0.5" fill="#FFF8E0"/>
<circle cx="940" cy="6" r="0.5" fill="#FFF8E0"/>
<circle cx="951" cy="6" r="0.5" fill="#FFF8E0"/>
<circle cx="962" cy="6" r="0.5" fill="#FFF8E0"/>
<circle cx="973" cy="6" r="0.5" fill="#FFF8E0"/>
<circle cx="984" cy="6" r="0.5" fill="#FFF8E0"/>
<circle cx="995" cy="6" r="0.5" fill="#FFF8E0"/>
<circle cx="1006" cy="6" r="0.5" fill="#FFF8E0"/>
<circle cx="1017" cy="6" r="0.5" fill="#FFF8E0"/>
<circle cx="1028" cy="6" r="0.5" fill="#FFF8E0"/>
<circle cx="1039" cy="6" r="0.5" fill="#FFF8E0"/>
<circle cx="1050" cy="6" r="0.5" fill="#FFF8E0"/>
<circle cx="1061" cy="6" r="0.5" fill="#FFF8E0"/>
<circle cx="1072" cy="6" r="0.5" fill="#FFF8E0"/>
<circle cx="1083" cy="6" r="0.5" fill="#FFF8E0"/>
<circle cx="1094" cy="6" r="0.5" fill="#FFF8E0"/>
<circle cx="1105" cy="6" r="0.5" fill="#FFF8E0"/>
<circle cx="1116" cy="6" r="0.5" fill="#FFF8E0"/>
<circle cx="1127" cy="6" r="0.5" fill="#FFF8E0"/>
<circle cx="1138" cy="6" r="0.5" fill="#FFF8E0"/>
<circle cx="1149" cy="6" r="0.5" fill="#FFF8E0"/>
<circle cx="1160" cy="6" r="0.5" fill="#FFF8E0"/>
<circle cx="1171" cy="6" r="0.5" fill="#FFF8E0"/>
<circle cx="1182" cy="6" r="0.5" fill="#FFF8E0"/>
<circle cx="1193" cy="6" r="0.5" fill="#FFF8E0"/>
<circle cx="1204" cy="6" r="0.5" fill="#FFF8E0"/>
<circle cx="1215" cy="6" r="0.5" fill="#FFF8E0"/>
<circle cx="1226" cy="6" r="0.5" fill="#FFF8E0"/>
<circle cx="1237" cy="6" r="0.5" fill="#FFF8E0"/>
<circle cx="1248" cy="6" r="0.5" fill="#FFF8E0"/>
<circle cx="1259" cy="6" r="0.5" fill="#FFF8E0"/>
<circle cx="1270" cy="6" r="0.5" fill="#FFF8E0"/>
<circle cx="1281" cy="6" r="0.5" fill="#FFF8E0"/>
<circle cx="1292" cy="6" r="0.5" fill="#FFF8E0"/>
<circle cx="1303" cy="6" r="0.5" fill="#FFF8E0"/>
<circle cx="1314" cy="6" r="0.5" fill="#FFF8E0"/>
<circle cx="1325" cy="6" r="0.5" fill="#FFF8E0"/>
<circle cx="1336" cy="6" r="0.5" fill="#FFF8E0"/>
<circle cx="1347" cy="6" r="0.5" fill="#FFF8E0"/>
<circle cx="1358" cy="6" r="0.5" fill="#FFF8E0"/>
<circle cx="1369" cy="6" r="0.5" fill="#FFF8E0"/>
<circle cx="1380" cy="6" r="0.5" fill="#FFF8E0"/>
<circle cx="1391" cy="6" r="0.5" fill="#FFF8E0"/>
<circle cx="1402" cy="6" r="0.5" fill="#FFF8E0"/>
<circle cx="1413" cy="6" r="0.5" fill="#FFF8E0"/>
<circle cx="1424" cy="6" r="0.5" fill="#FFF8E0"/>
<circle cx="1435" cy="6" r="0.5" fill="#FFF8E0"/>
</svg>
